<svg width="20" height="20" viewBox="0 0 20 20" fill="none" xmlns="http://www.w3.org/2000/svg">
<path d="M1.34264 15.9806C1.49776 17.3694 2.60784 18.4789 3.99589 18.6395C5.56434 18.8209 7.18507 18.9998 8.84331 18.9998C10.5016 18.9998 12.1223 18.8209 13.6907 18.6395C15.0788 18.4789 16.1888 17.3694 16.344 15.9806C16.5183 14.4197 16.6866 12.8067 16.6866 11.1565C16.6866 9.50635 16.5183 7.89344 16.344 6.33242C16.1888 4.94375 15.0788 3.8342 13.6907 3.67364C12.1223 3.49221 10.5016 3.31323 8.84331 3.31323C7.18507 3.31323 5.56434 3.49221 3.99589 3.67364C2.60784 3.8342 1.49776 4.94375 1.34264 6.33242C1.16826 7.89344 1 9.50635 1 11.1565C1 12.8067 1.16826 14.4197 1.34264 15.9806Z" fill="white"/>
<path d="M7.68963 3.34027C6.43209 3.39691 5.19862 3.5346 3.9959 3.67372C2.60784 3.83428 1.49776 4.94382 1.34264 6.33249C1.16826 7.89351 1 9.50642 1 11.1566C1 12.8068 1.16826 14.4197 1.34264 15.9808C1.49776 17.3694 2.60784 18.4789 3.99589 18.6395C5.56434 18.8209 7.18507 19 8.84331 19C10.5016 19 12.1223 18.8209 13.6907 18.6395C15.0788 18.4789 16.1888 17.3695 16.344 15.9808C16.4694 14.8579 16.5917 13.7081 16.6504 12.537" stroke="#4147D5" stroke-linecap="round"/>
<path d="M14.5155 1.73815L9.1849 7.7867L8.45462 11.2214C8.33711 11.7741 8.9132 12.297 9.4527 12.1274L12.8708 11.0529L18.3768 5.25929C19.2912 4.29705 19.1317 2.68762 18.0247 1.70853C16.9438 0.752376 15.3726 0.765636 14.5155 1.73815Z" fill="#D7E0FF" stroke="#4147D5" stroke-linecap="round" stroke-linejoin="round"/>
</svg>
