<svg width="18" height="18" viewBox="0 0 18 18" fill="none" xmlns="http://www.w3.org/2000/svg">
<g clip-path="url(#clip0_4_63)">
<path d="M9 16.875C6.91142 16.875 4.90838 16.0453 3.43153 14.5685C1.95468 13.0916 1.125 11.0886 1.125 9C1.125 6.91142 1.95468 4.90838 3.43153 3.43153C4.90838 1.95468 6.91142 1.125 9 1.125C11.0886 1.125 13.0916 1.95468 14.5685 3.43153C16.0453 4.90838 16.875 6.91142 16.875 9C16.875 11.0886 16.0453 13.0916 14.5685 14.5685C13.0916 16.0453 11.0886 16.875 9 16.875ZM9 18C11.3869 18 13.6761 17.0518 15.364 15.364C17.0518 13.6761 18 11.3869 18 9C18 6.61305 17.0518 4.32387 15.364 2.63604C13.6761 0.948212 11.3869 0 9 0C6.61305 0 4.32387 0.948212 2.63604 2.63604C0.948212 4.32387 0 6.61305 0 9C0 11.3869 0.948212 13.6761 2.63604 15.364C4.32387 17.0518 6.61305 18 9 18Z" fill="#E04545"/>
<path d="M5.22678 5.22678C5.27903 5.17439 5.3411 5.13283 5.40944 5.10448C5.47778 5.07612 5.55104 5.06152 5.62503 5.06152C5.69902 5.06152 5.77228 5.07612 5.84062 5.10448C5.90895 5.13283 5.97103 5.17439 6.02328 5.22678L9.00003 8.20465L11.9768 5.22678C12.0291 5.17448 12.0912 5.13299 12.1595 5.10469C12.2278 5.07639 12.3011 5.06182 12.375 5.06182C12.449 5.06182 12.5222 5.07639 12.5906 5.10469C12.6589 5.13299 12.721 5.17448 12.7733 5.22678C12.8256 5.27908 12.8671 5.34117 12.8954 5.4095C12.9237 5.47783 12.9382 5.55107 12.9382 5.62503C12.9382 5.69899 12.9237 5.77223 12.8954 5.84056C12.8671 5.90889 12.8256 5.97098 12.7733 6.02328L9.7954 9.00003L12.7733 11.9768C12.8256 12.0291 12.8671 12.0912 12.8954 12.1595C12.9237 12.2278 12.9382 12.3011 12.9382 12.375C12.9382 12.449 12.9237 12.5222 12.8954 12.5906C12.8671 12.6589 12.8256 12.721 12.7733 12.7733C12.721 12.8256 12.6589 12.8671 12.5906 12.8954C12.5222 12.9237 12.449 12.9382 12.375 12.9382C12.3011 12.9382 12.2278 12.9237 12.1595 12.8954C12.0912 12.8671 12.0291 12.8256 11.9768 12.7733L9.00003 9.7954L6.02328 12.7733C5.97098 12.8256 5.90889 12.8671 5.84056 12.8954C5.77223 12.9237 5.69899 12.9382 5.62503 12.9382C5.55107 12.9382 5.47783 12.9237 5.4095 12.8954C5.34117 12.8671 5.27908 12.8256 5.22678 12.7733C5.17448 12.721 5.13299 12.6589 5.10469 12.5906C5.07639 12.5222 5.06182 12.449 5.06182 12.375C5.06182 12.3011 5.07639 12.2278 5.10469 12.1595C5.13299 12.0912 5.17448 12.0291 5.22678 11.9768L8.20465 9.00003L5.22678 6.02328C5.17439 5.97103 5.13283 5.90895 5.10448 5.84062C5.07612 5.77228 5.06152 5.69902 5.06152 5.62503C5.06152 5.55104 5.07612 5.47778 5.10448 5.40944C5.13283 5.3411 5.17439 5.27903 5.22678 5.22678Z" fill="#E04545"/>
</g>
<defs>
<clipPath id="clip0_4_63">
<rect width="18" height="18" fill="white"/>
</clipPath>
</defs>
</svg>
